<svg width="200" height="160" viewBox="0 0 200 160" fill="none" xmlns="http://www.w3.org/2000/svg">
<g clip-path="url(#clip0_39_2)">
<path opacity="0.05" d="M49.718 0H93.785C82.485 13.569 73.258 28.457 66.102 44.664C59.322 60.872 56.309 74.629 57.062 85.936L45.198 71.802C58.004 71.802 68.738 76.137 77.401 84.806C86.441 93.098 90.961 103.274 90.961 115.336C90.961 127.774 86.817 138.327 78.531 146.996C70.245 155.665 59.7 160 46.893 160C32.957 160 21.657 155.1 12.994 145.3C4.331 135.501 0 122.874 0 107.42C0 96.49 2.26 84.617 6.78 71.802C11.676 58.61 17.702 45.795 24.859 33.357C32.392 20.542 40.679 9.423 49.718 0ZM155.932 0H200C188.701 13.569 179.473 28.457 172.316 44.664C165.537 60.872 162.524 74.629 163.277 85.936L151.412 71.802C164.218 71.802 174.953 76.137 183.616 84.806C192.655 93.098 197.175 103.274 197.175 115.336C197.175 127.774 193.032 138.327 184.746 146.996C176.46 155.665 165.913 160 153.107 160C139.171 160 127.872 155.1 119.209 145.3C110.546 135.501 106.215 122.874 106.215 107.42C106.215 96.49 108.475 84.617 112.994 71.802C117.891 58.61 123.917 45.795 131.073 33.357C138.606 20.542 146.893 9.423 155.932 0Z" fill="white"/>
</g>
<defs>
<clipPath id="clip0_39_2">
<rect width="200" height="160" fill="white"/>
</clipPath>
</defs>
</svg>
