<svg width="80" height="80" viewBox="0 0 80 80" fill="none" xmlns="http://www.w3.org/2000/svg">
<path d="M40.944 80.0001C62.5136 80.0001 79.9993 62.3414 79.9993 40.5584C79.9993 18.7753 62.5136 1.1167 40.944 1.1167C19.3743 1.1167 1.88867 18.7753 1.88867 40.5584C1.88867 62.3414 19.3743 80.0001 40.944 80.0001Z" fill="#29A3D9"/>
<path d="M39.0553 78.8834C60.6249 78.8834 78.1106 61.2247 78.1106 39.4417C78.1106 17.6586 60.6249 0 39.0553 0C17.4857 0 0 17.6586 0 39.4417C0 61.2247 17.4857 78.8834 39.0553 78.8834Z" fill="white"/>
<path fill-rule="evenodd" clip-rule="evenodd" d="M11.7773 67.3096L27.091 67.2155C27.4057 66.9363 27.8465 66.2089 27.091 65.5309L24.258 65.0699C23.8394 64.9726 22.9943 64.484 22.9632 63.3122V52.8583C28.892 52.8583 39.7764 51.7281 38.9097 41.18C39.0461 37.7059 36.1237 31.1385 24.7837 31.2389C20.7078 31.2877 12.449 31.4399 12.0206 31.6575C11.6118 32.0272 11.0393 32.953 12.0206 33.6981C13.0591 33.6666 15.2002 33.8781 15.4572 34.9747L15.6325 62.1402C15.6519 62.9913 15.4144 64.7523 14.3084 64.9866C13.8055 65.1365 12.595 65.3843 11.7286 65.4572C11.2613 65.5623 10.7453 66.8281 11.7773 67.3096ZM23.6738 33.719C25.2088 33.4888 28.5766 33.7169 29.7681 36.4711C30.9039 38.128 32.6477 43.3776 29.7681 48.254C29.0802 49.4191 26.8982 51.5921 23.6738 50.9643H23.2455L22.7489 34.7864C22.8073 34.4306 23.2747 33.7789 23.6738 33.719Z" fill="#02427D"/>
<path fill-rule="evenodd" clip-rule="evenodd" d="M45.7578 36.7925V6.38313L46.858 6.14245C48.2674 5.55645 55.1231 6.05874 58.3749 6.38313C63.375 6.9859 65.0989 10.6107 65.336 12.3478C66.457 17.1196 62.4154 19.3659 60.2536 19.8926C59.9969 20.0935 60.147 20.2903 60.2536 20.3635C66.1961 21.1672 67.3184 26.1887 67.1367 28.599C67.7443 38.5108 53.1371 38.1913 45.7578 36.7925ZM51.6771 8.91552V19.2752C51.7235 19.5096 51.9886 19.6799 52.1149 19.7357L54.7436 19.7671C58.5679 19.5746 59.2898 15.7104 59.1731 13.8024C58.9086 8.46137 54.6429 7.8517 52.5438 8.21442C52.0994 8.23958 51.7807 8.69232 51.6771 8.91552ZM51.6675 22.2869V32.3976C51.6872 32.4397 51.7152 32.514 51.7515 32.6111C51.9505 33.1356 52.4002 34.3223 53.0984 34.6475C55.795 35.9031 60.4067 35.3555 60.7266 28.9009C60.8678 26.5951 59.9951 21.9252 55.3732 21.6926L52.1965 21.7305C52.044 21.798 51.7235 22.0037 51.6675 22.2869Z" fill="#02427D"/>
<path d="M51.5943 17.963C50.5745 19.1436 49.2414 18.5955 48.7023 18.1738C46.3881 6.49481 38.403 7.07113 34.7098 8.79279C26.0824 16.4348 36.9698 24.5158 43.4079 27.397C52.349 32.0349 53.5058 39.7647 52.9668 43.0498C50.4178 62.276 30.7933 59.1067 21.2997 55.1189C19.2212 51.788 18.9304 45.0174 19.0447 42.0484C19.9859 40.9944 21.365 41.4336 21.9369 41.785C27.7409 56.9635 36.6756 55.5229 40.4176 52.9053C47.1238 43.0815 38.4733 36.5849 33.3097 34.5646C25.3879 29.6738 22.95 24.6915 22.7213 22.8118C19.9761 11.3435 28.3423 6.36832 32.8685 5.31425C38.045 3.33261 44.7643 4.9102 47.4764 5.94669C48.0256 6.28399 49.5029 6.36832 50.1724 6.36832C51.3489 7.84402 51.6104 14.713 51.5943 17.963Z" fill="#08B7D5"/>
</svg>
