<svg width="200" height="160" viewBox="0 0 200 160" fill="none" xmlns="http://www.w3.org/2000/svg">
<g clip-path="url(#clip0_39_4)">
<path opacity="0.05" d="M150.282 0H106.215C117.514 13.569 126.742 28.457 133.898 44.664C140.678 60.872 143.691 74.629 142.938 85.936L154.802 71.802C141.996 71.802 131.262 76.137 122.599 84.806C113.559 93.098 109.04 103.274 109.04 115.336C109.04 127.774 113.183 138.327 121.469 146.996C129.755 155.665 140.301 160 153.107 160C167.043 160 178.343 155.1 187.006 145.3C195.669 135.501 200 122.874 200 107.42C200 96.49 197.74 84.617 193.22 71.802C188.324 58.61 182.298 45.795 175.141 33.357C167.608 20.542 159.322 9.423 150.282 0ZM44.068 0H0C11.3 13.569 20.527 28.457 27.684 44.664C34.464 60.872 37.477 74.629 36.724 85.936L48.588 71.802C35.782 71.802 25.048 76.137 16.384 84.806C7.344 93.098 2.824 103.274 2.824 115.336C2.824 127.774 6.968 138.327 15.254 146.996C23.541 155.665 34.087 160 46.893 160C60.829 160 72.128 155.1 80.791 145.3C89.454 135.501 93.785 122.874 93.785 107.42C93.785 96.49 91.525 84.617 87.005 71.802C82.11 58.61 76.084 45.795 68.928 33.357C61.394 20.542 53.108 9.423 44.068 0Z" fill="white"/>
</g>
<defs>
<clipPath id="clip0_39_4">
<rect width="200" height="160" fill="white"/>
</clipPath>
</defs>
</svg>
