<svg width="42" height="12" viewBox="0 0 42 12" fill="none" xmlns="http://www.w3.org/2000/svg">
<path d="M0 -1.52588e-05C0 -1.52588e-05 0.44304 2.07898 5.81604 2.07898L37.192 2.07898C38.4229 2.07898 39.6034 2.56794 40.4738 3.43829C41.3441 4.30865 41.833 5.48912 41.833 6.71999V11.764C40.233 9.89898 38.138 9.68498 36.017 9.68498L4.64099 9.68498C4.03153 9.68498 3.42806 9.56494 2.86499 9.33171C2.30192 9.09848 1.79033 8.75663 1.35938 8.32567C0.928418 7.89471 0.586504 7.38308 0.353271 6.82001C0.120039 6.25694 0 5.65344 0 5.04398V-1.52588e-05Z" fill="#08B7D5"/>
</svg>
